<svg height="250" width="250" viewBox="-125 -125 250 250"
                  xmlns="http://www.w3.org/2000/svg" id="graph"
                  style="pointer-events: none">
    <polygon fill="green"
             points="100,0 0,0 0,-100"
             id="figure1"
    />

    <polygon fill="green"
             points="-100,0 -100,-50 0,-50 0,0"
             id="figure2"
    />

    <path d="M 0 0 L -100 0 A 100 100 0 0 0 0 100 Z"
          fill="green"
          id="figure3"
    />

    <line stroke="#fff" x1="-125" x2="115"  y1="0" y2="0"  stroke-width="2"/>
    <line stroke="#fff" x1="50"   x2="50"   y1="5" y2="-5" stroke-width="2"/>
    <line stroke="#fff" x1="100"  x2="100"  y1="5" y2="-5" stroke-width="2"/>
    <line stroke="#fff" x1="-50"  x2="-50"  y1="5" y2="-5" stroke-width="2"/>
    <line stroke="#fff" x1="-100" x2="-100" y1="5" y2="-5" stroke-width="2"/>

    <line stroke="#fff" x1="0" x2="0"  y1="-115" y2="125"  stroke-width="2"/>
    <line stroke="#fff" x1="5" x2="-5" y1="50"   y2="50"   stroke-width="2"/>
    <line stroke="#fff" x1="5" x2="-5" y1="100"  y2="100"  stroke-width="2"/>
    <line stroke="#fff" x1="5" x2="-5" y1="-50"  y2="-50"  stroke-width="2"/>
    <line stroke="#fff" x1="5" x2="-5" y1="-100" y2="-100" stroke-width="2"/>

    <polygon fill="#fff" points="0,-125 -5,-114 0,-115 5,-114"/>
    <polygon fill="#fff" points="125,0 114,5 115,0 114,-5"/>
    <text x="100"  y="20"   font-size="12" fill="#fff" text-anchor="middle"      >R</text>
    <text x="-100" y="20"   font-size="12" fill="#fff" text-anchor="middle"      >-R</text>
    <text x="8"    y="-100" font-size="12" fill="#fff" dominant-baseline="middle">R</text>
    <text x="8"    y="100"  font-size="12" fill="#fff" dominant-baseline="middle">-R</text>
    <text x="50"   y="20"   font-size="12" fill="#fff" text-anchor="middle"      >R/2</text>
    <text x="-50"  y="20"   font-size="12" fill="#fff" text-anchor="middle"      >-R/2</text>
    <text x="8"    y="-50"  font-size="12" fill="#fff" dominant-baseline="middle">R/2</text>
    <text x="8"    y="50"   font-size="12" fill="#fff" dominant-baseline="middle">-R/2</text>
</svg>